<svg width="512" height="512" viewBox="0 0 512 512" fill="none" xmlns="http://www.w3.org/2000/svg">
<path d="M324.929 512L138.16 254.616H0.293945L187.071 512H324.929Z" fill="url(#paint0_linear_9_13)"/>
<path d="M256.081 417.972L137.857 254.616H0L237.518 442.733L256.081 417.972Z" fill="#574CE3"/>
<path d="M324.929 0L138.16 254.616H0.293945L187.071 0H324.929Z" fill="url(#paint1_linear_9_13)"/>
<path opacity="0.7" d="M234.677 70.6811L0 254.616H137.857L253.808 96.3032L234.677 70.6811Z" fill="#4D49E2"/>
<path d="M187.365 512L374.134 254.616H512L325.222 512H187.365Z" fill="url(#paint2_linear_9_13)"/>
<path opacity="0.2" d="M187.063 511.076L512 254.616H373.007L187.063 511.076Z" fill="#FCEE21"/>
<path d="M187.365 0L374.134 254.616H512L325.222 0H187.365Z" fill="url(#paint3_linear_9_13)"/>
<path opacity="0.2" d="M187.071 0L512 256.462L324.929 0H187.071Z" fill="#FCEE21"/>
<defs>
<linearGradient id="paint0_linear_9_13" x1="0.295358" y1="383.308" x2="324.93" y2="383.308" gradientUnits="userSpaceOnUse">
<stop stop-color="#574CE3"/>
<stop offset="1" stop-color="#9FC1FF"/>
</linearGradient>
<linearGradient id="paint1_linear_9_13" x1="0.295358" y1="127.308" x2="324.93" y2="127.308" gradientUnits="userSpaceOnUse">
<stop stop-color="#9FC1FF"/>
<stop offset="1" stop-color="#574CE3"/>
</linearGradient>
<linearGradient id="paint2_linear_9_13" x1="349.682" y1="512" x2="349.682" y2="254.616" gradientUnits="userSpaceOnUse">
<stop stop-color="#FF742C"/>
<stop offset="1" stop-color="#FFC904"/>
</linearGradient>
<linearGradient id="paint3_linear_9_13" x1="511.999" y1="127.308" x2="187.365" y2="127.308" gradientUnits="userSpaceOnUse">
<stop stop-color="#FF742C"/>
<stop offset="1" stop-color="#FFC904"/>
</linearGradient>
</defs>
</svg>
